HIERARCHY
ROOT Hips
{
  OFFSET 0.00 0.00 0.00
  CHANNELS 6 Xposition Yposition Zposition Zrotation Xrotation Yrotation
  JOINT LeftUpLeg
  {
    OFFSET 3.43 0.00 0.00
    CHANNELS 3 Zrotation Xrotation Yrotation
    JOINT LeftLowLeg
    {
      OFFSET 0.00 -18.47 0.00
      CHANNELS 3 Zrotation Xrotation Yrotation
      JOINT LeftFoot
      {
        OFFSET 0.00 -17.95 0.00
        CHANNELS 3 Zrotation Xrotation Yrotation
        End Site
        {
          OFFSET 0.00 -3.12 0.00
        }
      }
    }
  }
  JOINT RightUpLeg
  {
    OFFSET -3.43 0.00 0.00
    CHANNELS 3 Zrotation Xrotation Yrotation
    JOINT RightLowLeg
    {
      OFFSET 0.00 -18.47 0.00
      CHANNELS 3 Zrotation Xrotation Yrotation
      JOINT RightFoot
      {
        OFFSET 0.00 -17.95 0.00
        CHANNELS 3 Zrotation Xrotation Yrotation
        End Site
        {
          OFFSET 0.00 -3.12 0.00
        }
      }
    }
  }
  JOINT Chest
  {
    OFFSET 0.00 4.57 0.00
    CHANNELS 3 Zrotation Xrotation Yrotation
    JOINT LeftCollar
    {
      OFFSET 1.06 15.33 1.76
      CHANNELS 3 Zrotation Xrotation Yrotation
      JOINT LeftUpArm
      {
        OFFSET 5.81 0.00 0.00
        CHANNELS 3 Zrotation Xrotation Yrotation
        JOINT LeftLowArm
        {
          OFFSET 0.00 -12.08 0.00
          CHANNELS 3 Zrotation Xrotation Yrotation
          JOINT LeftHand
          {
            OFFSET 0.00 -9.82 0.00
            CHANNELS 3 Zrotation Xrotation Yrotation
            End Site
            {
              OFFSET 0.00 -7.37 0.00
            }
          }
        }
      }
    }
    JOINT RightCollar
    {
      OFFSET -1.06 15.33 1.76
      CHANNELS 3 Zrotation Xrotation Yrotation
      JOINT RightUpArm
      {
        OFFSET -5.81 0.00 0.00
        CHANNELS 3 Zrotation Xrotation Yrotation
        JOINT RightLowArm
        {
          OFFSET 0.00 -12.08 0.00
          CHANNELS 3 Zrotation Xrotation Yrotation
          JOINT RightHand
          {
            OFFSET 0.00 -9.82 0.00
            CHANNELS 3 Zrotation Xrotation Yrotation
            End Site
            {
              OFFSET 0.00 -7.37 0.00
            }
          }
        }
      }
    }
    JOINT Neck
    {
      OFFSET 0.00 17.62 0.00
      CHANNELS 3 Zrotation Xrotation Yrotation
      JOINT Head
      {
        OFFSET 0.00 5.19 0.00
        CHANNELS 3 Zrotation Xrotation Yrotation
        End Site
        {
          OFFSET 0.00 4.14 0.00
        }
      }
    }
  }
}
MOTION
Frames:	14
Frame Time:	0.03
-8.22 -16.47 6.36 0.26 -8.22 47.81 7.86 -5.59 5.22 0.15 31.20 -0.16 5.15 -30.21 -1.63 1.70 7.22 -3.47 -0.13 8.49 0.10 -13.68 -18.66 -0.33 3.72 11.73 1.41 -22.31 -2.21 6.25 50.32 12.59 -35.83 0.66 -72.10 0.88 10.48 17.33 35.71 19.28 -5.41 -13.84 -37.28 15.92 9.59 -0.49 -65.47 -0.70 20.22 29.70 31.07 -1.64 -3.71 -5.38 -5.09 1.24 -5.23 
-8.00 -16.39 6.35 0.05 -8.42 47.93 7.90 -4.99 5.33 0.15 30.39 -0.15 5.64 -30.04 -1.34 1.67 5.92 -3.65 -0.13 11.27 0.10 -13.63 -18.89 -0.25 3.80 12.17 1.54 -22.28 -2.26 6.36 50.57 12.33 -36.84 0.65 -71.78 0.87 10.57 16.77 36.36 19.17 -5.48 -14.02 -36.59 14.99 9.10 -0.48 -65.19 -0.69 20.31 29.75 31.03 -1.44 -4.44 -5.50 -5.17 1.42 -5.28 
-7.78 -16.29 6.34 -0.22 -8.62 48.13 8.20 -4.17 5.42 0.15 29.39 -0.15 5.23 -29.91 -1.36 1.77 3.86 -3.48 -0.13 15.22 0.11 -13.60 -19.01 -0.35 3.94 12.64 1.48 -22.26 -2.32 6.49 50.99 12.02 -38.11 0.64 -71.50 0.86 10.83 16.18 37.41 18.93 -5.61 -14.39 -36.00 13.98 9.14 -0.48 -64.91 -0.69 20.49 29.20 30.97 -1.19 -5.30 -5.54 -5.35 1.67 -5.16 
-7.56 -16.21 6.36 -0.49 -8.76 48.38 8.49 -3.43 5.56 0.15 28.49 -0.15 4.66 -29.97 -1.79 1.94 1.36 -2.99 -0.14 19.61 0.12 -13.56 -19.06 -0.72 4.02 13.07 1.30 -22.25 -2.35 6.55 51.47 11.91 -39.18 0.64 -71.40 0.86 11.27 15.64 38.40 18.76 -5.70 -14.64 -35.57 13.07 9.39 -0.48 -64.78 -0.68 20.76 28.22 30.81 -0.91 -6.12 -5.50 -5.54 1.86 -4.96 
-7.34 -16.17 6.42 -0.76 -8.80 48.62 8.64 -2.98 5.81 0.14 27.87 -0.15 4.30 -30.21 -2.67 2.18 -1.34 -2.30 -0.14 23.73 0.13 -13.57 -18.93 -1.19 4.00 13.43 1.12 -22.25 -2.34 6.53 51.91 12.10 -39.80 0.64 -71.50 0.86 11.72 15.14 38.99 18.65 -5.75 -14.80 -35.26 12.33 9.81 -0.48 -64.84 -0.68 21.04 27.00 30.58 -0.64 -6.83 -5.42 -5.75 1.99 -4.74 
-7.09 -16.15 6.55 -1.02 -8.77 48.83 8.77 -2.62 6.14 0.14 27.47 -0.15 3.75 -30.66 -3.90 2.48 -3.84 -1.59 -0.14 26.35 0.14 -14.09 -18.38 -1.91 3.89 13.70 0.98 -22.27 -2.30 6.45 52.28 12.57 -39.99 0.65 -71.77 0.87 11.96 14.78 38.91 18.54 -5.81 -14.96 -35.02 11.88 10.30 -0.48 -65.15 -0.69 21.31 25.97 30.44 -0.19 -7.48 -5.31 -6.18 2.15 -4.38 
-6.79 -16.14 6.75 -1.28 -8.72 49.00 8.91 -2.22 6.47 0.14 27.20 -0.14 3.17 -31.31 -5.05 2.79 -6.12 -0.91 -0.14 27.17 0.14 -15.24 -17.28 -2.96 3.77 13.89 0.82 -22.27 -2.29 6.42 52.62 13.17 -40.00 0.66 -72.19 0.88 11.93 14.66 38.30 18.42 -5.87 -15.13 -34.87 11.77 10.79 -0.49 -65.69 -0.70 21.65 25.38 30.45 0.33 -8.16 -5.21 -6.73 2.46 -3.98 
-6.42 -16.15 7.01 -1.55 -8.68 49.13 9.05 -1.70 6.78 0.14 26.94 -0.14 2.67 -32.09 -5.95 3.10 -8.24 -0.24 -0.14 26.49 0.14 -16.47 -15.51 -3.99 3.73 14.04 0.59 -22.27 -2.30 6.45 52.96 13.78 -39.99 0.68 -72.74 0.91 11.58 14.84 37.37 18.32 -5.92 -15.27 -34.85 11.93 11.26 -0.51 -66.42 -0.72 22.08 25.09 30.51 0.72 -8.88 -5.10 -7.18 2.90 -3.61 
-5.99 -16.19 7.31 -1.80 -8.65 49.23 9.17 -0.97 7.04 0.14 26.62 -0.14 2.32 -32.94 -6.64 3.38 -10.12 0.36 -0.14 24.35 0.14 -17.18 -13.09 -4.60 3.77 14.12 0.23 -22.25 -2.34 6.53 53.28 14.35 -39.94 0.71 -73.41 0.93 10.93 15.39 36.18 18.25 -5.95 -15.37 -35.02 12.39 11.70 -0.53 -67.31 -0.74 22.62 25.00 30.50 0.99 -9.53 -4.93 -7.56 3.35 -3.21 
-5.46 -16.26 7.66 -2.01 -8.61 49.32 9.19 0.05 7.26 0.14 26.18 -0.14 2.17 -33.82 -7.27 3.58 -11.91 0.74 -0.14 21.23 0.13 -16.52 -10.36 -4.17 3.93 14.10 -0.23 -22.24 -2.36 6.59 53.56 14.84 -39.91 0.74 -74.16 0.97 10.06 16.31 34.74 18.22 -5.96 -15.41 -35.33 13.27 11.98 -0.55 -68.32 -0.76 23.27 24.96 30.36 1.06 -9.90 -4.67 -7.79 3.62 -2.82 
-4.87 -16.37 8.06 -2.12 -8.51 49.49 9.09 1.31 7.46 0.14 25.60 -0.14 2.14 -34.65 -8.01 3.60 -13.76 0.74 -0.13 17.89 0.12 -14.49 -7.92 -2.51 4.13 13.92 -0.75 -22.26 -2.32 6.50 53.80 15.00 -40.04 0.78 -74.86 1.00 9.32 17.30 33.45 18.15 -5.99 -15.50 -35.16 14.83 11.85 -0.58 -69.44 -0.79 23.60 25.08 30.69 0.90 -9.80 -4.45 -7.76 3.55 -2.65 
-4.23 -16.52 8.50 -2.15 -8.31 49.77 8.87 2.75 7.58 0.14 24.87 -0.14 2.16 -35.39 -8.75 3.34 -15.63 0.48 -0.13 14.53 0.11 -12.17 -5.94 -0.12 4.22 13.59 -1.25 -22.31 -2.21 6.25 54.10 14.71 -40.37 0.81 -75.49 1.04 8.91 18.03 32.63 18.00 -6.06 -15.71 -34.92 16.73 11.14 -0.61 -70.42 -0.82 24.36 25.25 30.49 0.73 -9.27 -4.35 -7.57 3.07 -2.69 
-3.57 -16.70 9.00 -2.09 -7.97 50.15 8.55 4.26 7.58 0.14 24.09 -0.14 2.25 -36.09 -9.22 2.76 -17.43 0.16 -0.13 11.05 0.10 -10.37 -4.46 2.40 4.10 13.17 -1.68 -22.36 -2.05 5.90 54.55 14.01 -40.76 0.85 -76.23 1.08 8.82 18.47 32.16 17.78 -6.15 -16.00 -34.60 18.91 9.91 -0.63 -71.27 -0.85 25.52 25.42 29.62 0.81 -8.45 -4.29 -7.48 2.22 -2.71 
-2.89 -16.92 9.56 -1.92 -7.48 50.63 8.14 5.79 7.42 0.14 23.26 -0.13 2.41 -36.76 -9.26 1.86 -19.19 -0.12 -0.13 7.77 0.10 -9.51 -3.82 4.60 3.71 12.71 -2.09 -22.42 -1.88 5.55 55.19 12.97 -41.02 0.91 -77.15 1.14 8.91 18.73 31.80 17.53 -6.25 -16.32 -34.16 21.30 8.26 -0.65 -71.86 -0.87 26.94 25.49 28.02 1.33 -7.49 -4.18 -7.69 1.06 -2.53 
